<svg width="18" height="18" viewBox="0 0 20 20" fill="none" xmlns="http://www.w3.org/2000/svg">
<path d="M11.2121 6.21209C11.5782 5.84597 12.1718 5.84597 12.5379 6.21209C12.8996 6.57371 12.904 7.15727 12.5512 7.52434L7.56098 13.7622C7.55378 13.7712 7.54608 13.7798 7.53793 13.7879C7.17181 14.154 6.57822 14.154 6.2121 13.7879L2.90404 10.4799C2.53793 10.1137 2.53793 9.52015 2.90404 9.15403C3.27016 8.78791 3.86375 8.78791 4.22987 9.15403L6.84677 11.7709L11.1872 6.24013C11.195 6.23029 11.2033 6.22093 11.2121 6.21209Z" fill="#000"/>
<path d="M10.0616 12.6374L11.2121 13.7879C11.5782 14.154 12.1718 14.154 12.5379 13.7879C12.5461 13.7798 12.5538 13.7712 12.561 13.7622L17.5512 7.52434C17.904 7.15727 17.8996 6.57371 17.5379 6.21209C17.1718 5.84597 16.5782 5.84597 16.2121 6.21209C16.2033 6.22093 16.195 6.23029 16.1872 6.24013L11.8468 11.7709L11.2401 11.1642L10.0616 12.6374Z" fill="#fff"/>
</svg>
